<svg viewBox="0 0 64 64" xmlns="http://www.w3.org/2000/svg">
    <g style="
        fill: none;
        stroke: #3478F6;
        stroke-width: 6; /* 선 두께 */
        stroke-linecap: round;
        stroke-linejoin: round;
    ">
        <path d="M32 6
                 C22 6, 14 12, 14 20
                 C10 22, 8 28, 10 34
                 C8 36, 8 42, 12 46
                 C10 52, 16 58, 24 58
                 C26 60, 28 60, 32 58
                 C36 60, 38 60, 40 58
                 C48 58, 54 52, 52 46
                 C56 42, 56 36, 54 34
                 C56 28, 54 22, 50 20
                 C50 12, 42 6, 32 6Z" />

        <path d="M32 6
                 C28 10, 28 14, 30 18
                 C28 22, 30 26, 32 28
                 C34 30, 34 34, 32 36
                 C30 38, 30 42, 32 46
                 C34 50, 34 54, 32 58" />
    </g>
</svg>